# xmcd
#
# Track frame offsets:
#	150
#	20955
#	41010
#	64077
#	84857
#	104922
#
# Disc length: 1704 seconds
#
# Revision: 1
# Processed by: cddbd v1.5.1PL0 Copyright (c) Steve Scherf et al.
# Submitted via: CDex 1.50Beta5
#
DISCID=4f06a606
DTITLE=ホフディラン - 長い秘密
DYEAR=1900
DGENRE=Folk
TTITLE0=長い秘密
TTITLE1=Flower
TTITLE2=ドナー・ドリーマー
TTITLE3=長い秘密(inst)
TTITLE4=Flower(inst)
TTITLE5=ドナー・ドリーマー(inst)
EXTD=
EXTT0=
EXTT1=
EXTT2=
EXTT3=
EXTT4=
EXTT5=
PLAYORDER=
